<svg id="Layer_1" data-name="Layer 1" xmlns="http://www.w3.org/2000/svg" viewBox="0 0 290.77 290.77"><defs><style>.cls-1{fill:#fff;}</style></defs><title>logoKKw</title><path class="cls-1" d="M338.41,438V386.5h.31a27.35,27.35,0,0,0,2.39,3l45,48.55h14.36L349.3,384.33l48-50.07h-13l-43.07,45.8-1.31,1.52a17.12,17.12,0,0,0-1.16,1.52h-.31V334.26H328.15V438Z" transform="translate(-160.62 -250.62)"/><path class="cls-1" d="M400.47,521.66,392.24,513a145.58,145.58,0,0,1-13.16,8.63Z" transform="translate(-160.62 -250.62)"/><path class="cls-1" d="M392.21,250.62H358.13l-6.81,7.24a144.57,144.57,0,0,1,24,10.34Z" transform="translate(-160.62 -250.62)"/><path class="cls-1" d="M211.53,521.66h21.39a145.74,145.74,0,0,1-21.39-15.21Z" transform="translate(-160.62 -250.62)"/><path class="cls-1" d="M238.35,250.62H211.53v34.93a145.61,145.61,0,0,1,26.82-18.22Z" transform="translate(-160.62 -250.62)"/><path class="cls-1" d="M245.61,370.26q-1.81,2.08-3.43,4a44.66,44.66,0,0,0-3,4h-.81v-89a127.08,127.08,0,0,0-26.82,22.78V480.07a127.08,127.08,0,0,0,26.82,22.78V387.08h.81a71.44,71.44,0,0,0,6.25,7.75l109.3,117.92a126.19,126.19,0,0,0,24.36-13.54L266.78,381.41l94.92-99a125.55,125.55,0,0,0-24.91-9.12Z" transform="translate(-160.62 -250.62)"/><path class="cls-1" d="M354.71,512.75a126.52,126.52,0,0,1-116.36-9.9v18.82h-5.43a145.27,145.27,0,0,0,146.16,0H363Z" transform="translate(-160.62 -250.62)"/><path class="cls-1" d="M451.38,396a145.35,145.35,0,0,0-76-127.81L361.7,282.43a126.47,126.47,0,0,1,17.37,216.78L392.24,513A145.16,145.16,0,0,0,451.38,396Z" transform="translate(-160.62 -250.62)"/><path class="cls-1" d="M179.52,396a126,126,0,0,1,32-84.07V285.54a145.28,145.28,0,0,0,0,220.92V480.07A126,126,0,0,1,179.52,396Z" transform="translate(-160.62 -250.62)"/><path class="cls-1" d="M306,269.52a126.7,126.7,0,0,1,30.79,3.79l14.53-15.45a145.38,145.38,0,0,0-113,9.46v21.83A125.85,125.85,0,0,1,306,269.52Z" transform="translate(-160.62 -250.62)"/></svg>